<?xml version="1.0" encoding="utf-8"?>
<svg width="20" height="20" viewBox="0 0 20 20" fill="none" xmlns="http://www.w3.org/2000/svg">
  <g>
    <path d="M0.21967 0.21967C0.512563 -0.0732231 0.987437 -0.0732231 1.28033 0.21967L5.75 4.68934L10.2197 0.21967C10.5126 -0.0732231 10.9874 -0.0732231 11.2803 0.21967C11.5732 0.512563 11.5732 0.987437 11.2803 1.28033L6.81066 5.75L11.2803 10.2197C11.5732 10.5126 11.5732 10.9874 11.2803 11.2803C10.9874 11.5732 10.5126 11.5732 10.2197 11.2803L5.75 6.81066L1.28033 11.2803C0.987437 11.5732 0.512563 11.5732 0.21967 11.2803C-0.0732231 10.9874 -0.0732231 10.5126 0.21967 10.2197L4.68934 5.75L0.21967 1.28033C-0.0732231 0.987437 -0.0732231 0.512563 0.21967 0.21967Z" fill="#080B12" fill-rule="evenodd" transform="translate(4.25 4.25)" />
  </g>
</svg>