<?xml version="1.0" encoding="utf-8"?>
<svg width="20" height="20" viewBox="0 0 20 20" fill="none" xmlns="http://www.w3.org/2000/svg">
  <g>
    <path d="M5.83333 2.91667C5.83333 4.5275 4.5275 5.83333 2.91667 5.83333C1.30583 5.83333 0 4.5275 0 2.91667C0 1.30583 1.30583 0 2.91667 0C4.5275 0 5.83333 1.30583 5.83333 2.91667Z" fill="none" stroke-width="1.25" stroke="#080B12" transform="translate(7.083 7.083)" />
    <path d="M15.8425 9.50613C16.2774 9.38888 16.4949 9.33021 16.5807 9.21805C16.6667 9.10596 16.6667 8.92555 16.6667 8.5648L16.6667 6.95338C16.6667 6.59263 16.6667 6.41221 16.5807 6.30013C16.4948 6.18796 16.2774 6.1293 15.8425 6.01203C14.2172 5.57371 13.1999 3.87447 13.6194 2.25977C13.7347 1.81571 13.7924 1.59368 13.7373 1.46346C13.6823 1.33323 13.5243 1.2435 13.2081 1.06401L11.7708 0.24799C11.4607 0.0718732 11.3056 -0.0161853 11.1664 0.00256467C11.0272 0.0213146 10.8702 0.17799 10.556 0.491323C9.34 1.70445 7.328 1.7044 6.11195 0.491248C5.79786 0.177907 5.64082 0.0212398 5.50161 0.00248146C5.36241 -0.0162685 5.20731 0.0717897 4.89711 0.247906L3.45987 1.06394C3.14377 1.24341 2.98572 1.33314 2.93065 1.46334C2.87557 1.59355 2.93322 1.81561 3.04854 2.25971C3.46781 3.87446 2.44977 5.57374 0.824183 6.01205C0.389267 6.1293 0.171808 6.18796 0.0859001 6.30005C0 6.41221 0 6.59263 0 6.95338L0 8.5648C0 8.92555 0 9.10596 0.0859001 9.21805C0.171792 9.33021 0.389258 9.38888 0.824183 9.50613C2.4495 9.94446 3.46673 11.6437 3.04727 13.2584C2.93191 13.7025 2.87422 13.9245 2.9293 14.0547C2.98438 14.185 3.14243 14.2747 3.45854 14.4541L4.89579 15.2702C5.20601 15.4463 5.36112 15.5344 5.50033 15.5156C5.63955 15.4969 5.79657 15.3401 6.11059 15.0268C7.32725 13.8127 9.34067 13.8126 10.5574 15.0267C10.8714 15.3401 11.0284 15.4968 11.1677 15.5155C11.3068 15.5343 11.462 15.4462 11.7722 15.2701L13.2094 14.454C13.5256 14.2746 13.6837 14.1849 13.7387 14.0546C13.7937 13.9244 13.7361 13.7024 13.6207 13.2583C13.201 11.6437 14.2174 9.94455 15.8425 9.50613Z" fill="none" stroke-width="1.25" stroke="#080B12" stroke-linecap="round" transform="translate(1.667 2.241)" />
  </g>
</svg>