<?xml version="1.0" encoding="utf-8"?>
<svg width="155.513" height="40" viewBox="0 0 155.513 40" fill="none" xmlns="http://www.w3.org/2000/svg">
  <g>
    <g transform="translate(0 8.333)">
      <path d="M9.15385 5.02513C8.48215 5.00615 7.84452 4.7331 7.3763 4.26398C6.9081 3.79485 6.64615 3.16659 6.64615 2.51258C6.64615 1.85856 6.9081 1.23027 7.3763 0.761146C7.84452 0.292019 8.48215 0.0189969 9.15385 0L25.585 0C26.2567 0.0189969 26.8944 0.292019 27.3626 0.761146C27.8307 1.23027 28.0927 1.85856 28.0927 2.51258C28.0927 3.16659 27.8307 3.79485 27.3626 4.26398C26.8944 4.7331 26.2567 5.00615 25.585 5.02513L9.15385 5.02513ZM2.58271 9.39271C3.09352 9.39271 3.59286 9.24528 4.01758 8.96908C4.4423 8.69288 4.77334 8.3003 4.96882 7.841C5.16429 7.38169 5.21543 6.87629 5.11578 6.38871C5.01613 5.90111 4.77013 5.45321 4.40893 5.10169C4.04774 4.75014 3.58754 4.51074 3.08657 4.41373C2.58557 4.31675 2.06626 4.36652 1.59434 4.55677C1.12241 4.74702 0.71905 5.06921 0.435259 5.48257C0.151469 5.89595 0 6.38192 0 6.87907C0.00173124 7.54462 0.274615 8.18236 0.758778 8.65238C1.24294 9.1224 1.89887 9.38637 2.58271 9.38637L2.58271 9.39271ZM4.93002 18.2742C4.24505 18.2742 3.58809 18.5391 3.10374 19.0105C2.61939 19.4818 2.34731 20.1212 2.34731 20.7879C2.34731 21.4546 2.61939 22.0939 3.10374 22.5652C3.58809 23.0366 4.24505 23.3015 4.93002 23.3015L21.359 23.3015C22.044 23.3015 22.7009 23.0366 23.1852 22.5652C23.6697 22.0939 23.9417 21.4546 23.9417 20.7879C23.9417 20.1212 23.6697 19.4818 23.1852 19.0105C22.7009 18.5391 22.044 18.2742 21.359 18.2742L4.93002 18.2742ZM8.68528 9.13818C8.33994 9.1284 7.9961 9.18616 7.67413 9.30803C7.35215 9.42991 7.05855 9.61344 6.81074 9.84771C6.56291 10.082 6.36591 10.3623 6.23139 10.672C6.09685 10.9817 6.02755 11.3145 6.02755 11.6507C6.02755 11.987 6.09685 12.3198 6.23139 12.6295C6.36591 12.9392 6.56291 13.2195 6.81074 13.4538C7.05855 13.6881 7.35215 13.8716 7.67413 13.9934C7.9961 14.1153 8.33994 14.1731 8.68528 14.1633L21.8276 14.1633C22.173 14.1731 22.5167 14.1153 22.8388 13.9934C23.1608 13.8716 23.4543 13.6881 23.7021 13.4538C23.9499 13.2195 24.147 12.9392 24.2814 12.6295C24.4159 12.3198 24.4852 11.987 24.4852 11.6507C24.4852 11.3145 24.4159 10.9817 24.2814 10.672C24.147 10.3623 23.9499 10.082 23.7021 9.84771C23.4543 9.61344 23.1608 9.42991 22.8388 9.30803C22.5167 9.18616 22.173 9.1284 21.8276 9.13818L8.68528 9.13818ZM27.9323 13.9088C27.4214 13.9084 26.9217 14.0555 26.4967 14.3315C26.0715 14.6076 25.7402 15.0001 25.5445 15.4595C25.3487 15.9189 25.2973 16.4245 25.3969 16.9123C25.4965 17.4001 25.7426 17.8482 26.1039 18.1998C26.4653 18.5515 26.9256 18.7909 27.4269 18.8878C27.9279 18.9848 28.4475 18.9348 28.9194 18.7443C29.3915 18.5538 29.7949 18.2313 30.0784 17.8176C30.362 17.4039 30.5133 16.9176 30.5128 16.4203C30.5137 16.0899 30.4477 15.7627 30.3182 15.4572C30.1889 15.1518 29.9991 14.8742 29.7594 14.6403C29.5196 14.4064 29.2348 14.2208 28.9214 14.0942C28.6079 13.9676 28.2719 13.9024 27.9323 13.9024L27.9323 13.9088Z" fill="#CA3884" />
    </g>
    <path d="M12.5333 31.2L12.5333 21.5467L13.68 20Q13.6267 21.9733 12.8933 23.4Q12.16 24.8267 10.8533 25.5867Q9.54667 26.3467 7.78667 26.3467Q6.26667 26.3467 5.01333 25.7733Q3.76 25.2 2.86667 24.2Q1.97333 23.2 1.50667 21.84Q1.04 20.48 1.04 18.9067L1.04 18.2933Q1.04 16.72 1.53333 15.36Q2.02667 14 2.94667 12.9867Q3.86667 11.9733 5.13333 11.4Q6.4 10.8267 7.94667 10.8267Q9.76 10.8267 11.08 11.6133Q12.4 12.4 13.1467 13.88Q13.8933 15.36 13.9467 17.4933L13.44 17.4933L13.44 11.2533L16.8267 11.2533L16.8267 31.2L12.5333 31.2ZM9.04 22.7467Q10.0267 22.7467 10.84 22.3067Q11.6533 21.8667 12.1467 21.0133Q12.64 20.16 12.64 18.96L12.64 17.9733Q12.64 16.8 12.1333 16Q11.6267 15.2 10.8 14.7733Q9.97333 14.3467 9.04 14.3467Q7.94667 14.3467 7.10667 14.8933Q6.26667 15.44 5.78667 16.3867Q5.30667 17.3333 5.30667 18.6133Q5.30667 19.8667 5.78667 20.8Q6.26667 21.7333 7.10667 22.24Q7.94667 22.7467 9.04 22.7467ZM25.0933 26.32Q22.56 26.32 21.2 24.68Q19.84 23.04 19.84 19.7333L19.84 11.2533L24.1067 11.2533L24.1067 19.9467Q24.1067 21.12 24.7733 21.8133Q25.44 22.5067 26.56 22.5067Q27.7067 22.5067 28.4267 21.7867Q29.1467 21.0667 29.1467 19.84L29.1467 11.2533L33.4133 11.2533L33.4133 25.8667L30.0267 25.8667L30.0267 19.7067L30.32 19.7067Q30.32 21.92 29.7467 23.4Q29.1733 24.88 28.0533 25.6Q26.9333 26.32 25.28 26.32L25.0933 26.32ZM37.52 25.8667L37.52 11.2533L41.7867 11.2533L41.7867 25.8667L37.52 25.8667ZM35.5733 14.4L35.5733 11.2533L41.7867 11.2533L41.7867 14.4L35.5733 14.4ZM39.1733 9.81333Q37.9733 9.81333 37.4 9.18666Q36.8267 8.56 36.8267 7.6Q36.8267 6.61333 37.4 5.98666Q37.9733 5.36 39.1733 5.36Q40.3733 5.36 40.9467 5.98666Q41.52 6.61333 41.52 7.6Q41.52 8.56 40.9467 9.18666Q40.3733 9.81333 39.1733 9.81333ZM51.76 26.3733Q49.8667 26.3733 48.4667 25.7467Q47.0667 25.12 46.1333 24.0533Q45.2 22.9867 44.7467 21.64Q44.2933 20.2933 44.2933 18.8533L44.2933 18.3467Q44.2933 16.8533 44.7733 15.48Q45.2533 14.1067 46.1867 13.04Q47.12 11.9733 48.52 11.36Q49.92 10.7467 51.7333 10.7467Q53.7067 10.7467 55.2267 11.5067Q56.7467 12.2667 57.6533 13.6267Q58.56 14.9867 58.6667 16.7467L54.48 16.7467Q54.3733 15.76 53.6933 15.08Q53.0133 14.4 51.7333 14.4Q50.6667 14.4 49.96 14.9333Q49.2533 15.4667 48.9067 16.4Q48.56 17.3333 48.56 18.6133Q48.56 19.7867 48.88 20.7333Q49.2 21.68 49.9067 22.2Q50.6133 22.72 51.76 22.72Q52.6133 22.72 53.2133 22.4133Q53.8133 22.1067 54.1733 21.56Q54.5333 21.0133 54.6133 20.2933L58.7733 20.2933Q58.6933 22.1067 57.76 23.48Q56.8267 24.8533 55.28 25.6133Q53.7333 26.3733 51.76 26.3733ZM71.2533 25.8667L66.64 19.04L64.5867 19.04L70.5333 11.2533L75.0133 11.2533L69.4133 18.5067L69.4667 16.4267L76.0533 25.8667L71.2533 25.8667ZM60.96 25.8667L60.96 6.4L65.2267 6.4L65.2267 25.8667L60.96 25.8667ZM77.5467 25.8667L77.5467 6.4L81.84 6.4L81.84 25.8667L77.5467 25.8667ZM75.8133 9.54666L75.8133 6.4L81.84 6.4L81.84 9.54666L75.8133 9.54666ZM85.92 25.8667L85.92 11.2533L90.1867 11.2533L90.1867 25.8667L85.92 25.8667ZM83.9733 14.4L83.9733 11.2533L90.1867 11.2533L90.1867 14.4L83.9733 14.4ZM87.5733 9.81333Q86.3733 9.81333 85.8 9.18666Q85.2267 8.56 85.2267 7.6Q85.2267 6.61333 85.8 5.98666Q86.3733 5.36 87.5733 5.36Q88.7733 5.36 89.3467 5.98666Q89.92 6.61333 89.92 7.6Q89.92 8.56 89.3467 9.18666Q88.7733 9.81333 87.5733 9.81333ZM99.1467 26.32Q96.0267 26.32 94.2667 25.04Q92.5067 23.76 92.4 21.44L96.1867 21.44Q96.2933 22.1333 97.0267 22.68Q97.76 23.2267 99.2267 23.2267Q100.347 23.2267 101.08 22.84Q101.813 22.4533 101.813 21.7333Q101.813 21.0933 101.253 20.7067Q100.693 20.32 99.2533 20.16L98.1067 20.0533Q95.4667 19.7867 94.1467 18.5867Q92.8267 17.3867 92.8267 15.52Q92.8267 13.9733 93.6 12.9333Q94.3733 11.8933 95.7467 11.36Q97.12 10.8267 98.88 10.8267Q101.707 10.8267 103.44 12.0667Q105.173 13.3067 105.253 15.6533L101.467 15.6533Q101.36 14.9333 100.72 14.44Q100.08 13.9467 98.8267 13.9467Q97.84 13.9467 97.2533 14.32Q96.6667 14.6933 96.6667 15.3333Q96.6667 15.9467 97.1733 16.2667Q97.68 16.5867 98.8267 16.72L99.9733 16.8267Q102.667 17.12 104.16 18.32Q105.653 19.52 105.653 21.5467Q105.653 23.0133 104.853 24.0933Q104.053 25.1733 102.587 25.7467Q101.12 26.32 99.1467 26.32ZM114.533 26.0533Q112.32 26.0533 110.96 25.5067Q109.6 24.96 108.973 23.6667Q108.347 22.3733 108.347 20.16L108.347 7.30666L112.32 7.30666L112.32 20.32Q112.32 21.36 112.867 21.9067Q113.413 22.4533 114.427 22.4533L116.587 22.4533L116.587 26.0533L114.533 26.0533ZM106.133 14.3733L106.133 11.2533L116.587 11.2533L116.587 14.3733L106.133 14.3733Z" transform="translate(37.513 0)" fill="#374151" />
  </g>
</svg>