<?xml version="1.0" encoding="utf-8"?>
<svg width="20" height="20" viewBox="0 0 20 20" fill="none" xmlns="http://www.w3.org/2000/svg">
  <g>
    <path d="M12.5 0L11.9836 8.35425C11.8516 10.4887 11.7857 11.5559 11.2507 12.3232C10.9861 12.7026 10.6456 13.0228 10.2506 13.2633C9.45175 13.75 8.3825 13.75 6.24392 13.75C4.1026 13.75 3.03192 13.75 2.23254 13.2624C1.83733 13.0214 1.49667 12.7007 1.23223 12.3207C0.6974 11.5522 0.632875 10.4834 0.503841 8.346L0 0" fill="none" stroke-width="1.25" stroke="#080B12" stroke-linecap="round" transform="translate(3.75 4.583)" />
    <path d="M15 2.29167L0 2.29167Q-0.0615571 2.29167 -0.121931 2.30368Q-0.182306 2.31569 -0.239177 2.33924Q-0.296048 2.3628 -0.347231 2.397Q-0.398414 2.4312 -0.441942 2.47473Q-0.485469 2.51825 -0.519668 2.56944Q-0.553868 2.62062 -0.577425 2.67749Q-0.600982 2.73436 -0.612991 2.79474Q-0.625 2.85511 -0.625 2.91667Q-0.625 2.97822 -0.612991 3.0386Q-0.600982 3.09897 -0.577425 3.15584Q-0.553868 3.21272 -0.519669 3.2639Q-0.485469 3.31508 -0.441942 3.35861Q-0.398414 3.40214 -0.347231 3.43634Q-0.296048 3.47053 -0.239177 3.49409Q-0.182306 3.51765 -0.121931 3.52966Q-0.0615571 3.54167 0 3.54167L15 3.54167Q15.0616 3.54167 15.1219 3.52966Q15.1823 3.51765 15.2392 3.49409Q15.296 3.47053 15.3472 3.43634Q15.3984 3.40214 15.4419 3.35861Q15.4855 3.31508 15.5197 3.2639Q15.5539 3.21272 15.5774 3.15584Q15.601 3.09897 15.613 3.0386Q15.625 2.97822 15.625 2.91667Q15.625 2.85511 15.613 2.79474Q15.601 2.73436 15.5774 2.67749Q15.5539 2.62062 15.5197 2.56944Q15.4855 2.51825 15.4419 2.47473Q15.3984 2.4312 15.3472 2.397Q15.296 2.3628 15.2392 2.33924Q15.1823 2.31569 15.1219 2.30368Q15.0616 2.29167 15 2.29167ZM10.1852 2.91667L10.3173 3.18927Q10.3716 3.30115 10.4645 3.38375Q10.5574 3.46635 10.6748 3.50712Q10.7923 3.54788 10.9164 3.54059Q11.0405 3.53331 11.1524 3.47908Q11.2078 3.45223 11.2568 3.41509Q11.3059 3.37795 11.3468 3.33195Q11.3877 3.28594 11.4189 3.23284Q11.45 3.17975 11.4702 3.12159Q11.4904 3.06344 11.4988 3.00246Q11.5073 2.94149 11.5037 2.88004Q11.5001 2.81859 11.4845 2.75902Q11.469 2.69945 11.4422 2.64406L10.8733 1.4705Q10.24 0.163978 9.79176 -0.170316Q9.6426 -0.281642 9.47691 -0.367573Q8.98073 -0.625 7.52875 -0.625Q6.04084 -0.625 5.53632 -0.356743Q5.36829 -0.267391 5.21733 -0.151583Q4.76396 0.196223 4.1468 1.55015L3.64207 2.65743Q3.61653 2.71344 3.60242 2.77336Q3.5883 2.83328 3.58615 2.8948Q3.584 2.95632 3.59388 3.01707Q3.60377 3.07783 3.62533 3.13549Q3.64688 3.19315 3.67927 3.2455Q3.71165 3.29785 3.75363 3.34287Q3.79561 3.3879 3.84556 3.42387Q3.89552 3.45984 3.95153 3.48537Q4.00754 3.5109 4.06746 3.52502Q4.12738 3.53913 4.1889 3.54128Q4.25042 3.54344 4.31117 3.53355Q4.37193 3.52366 4.42959 3.50211Q4.48725 3.48055 4.5396 3.44817Q4.59195 3.41578 4.63697 3.3738Q4.682 3.33182 4.71797 3.28187Q4.75394 3.23191 4.77947 3.1759L4.89764 2.91667L5.28421 2.06861Q5.7721 0.998282 5.97816 0.8402Q6.04679 0.787549 6.12315 0.746943Q6.3525 0.625 7.52875 0.625Q8.67577 0.625 8.90142 0.742073Q8.97662 0.781074 9.04441 0.831666Q9.24818 0.98365 9.7485 2.01572L10.1852 2.91667Z" fill="none" stroke-width="1.25" stroke="#080B12" stroke-linecap="round" transform="translate(2.5 1.667)" />
    <path d="M0 5L0 0" fill="none" stroke-width="1.25" stroke="#080B12" stroke-linecap="round" transform="translate(7.917 8.75)" />
    <path d="M0 5L0 0" fill="none" stroke-width="1.25" stroke="#080B12" stroke-linecap="round" transform="translate(12.083 8.75)" />
  </g>
</svg>