<?xml version="1.0" encoding="utf-8"?>
<svg width="20" height="20" viewBox="0 0 20 20" fill="none" xmlns="http://www.w3.org/2000/svg">
  <g>
    <path d="M8.77946 0.00641739C8.10338 0.0656574 7.68886 0.126337 7.22226 0.234297C4.94734 0.760697 2.93074 2.14534 1.61538 4.08412C0.5501 5.65428 0 7.44212 0 9.33412C0 11.3031 0.59626 13.1599 1.7469 14.7741C3.05698 16.612 5.04524 17.9368 7.24946 18.4407C8.75034 18.7837 10.3918 18.7447 11.8595 18.3312C14.0673 17.7091 15.9485 16.3161 17.2031 14.3741C17.5418 13.8499 17.7851 13.3725 18.039 12.7341C18.7154 11.0336 18.8615 9.06202 18.446 7.24412C17.9765 5.1899 16.7984 3.3262 15.1395 2.01314C13.7413 0.906477 12.1115 0.240297 10.3195 0.0429174C10.0455 0.0127375 8.99212 -0.0122226 8.77946 0.00641739ZM9.18336 4.63546C8.8914 4.69294 8.6502 4.95006 8.6004 5.25688C8.57434 5.41756 8.57252 9.59062 8.59846 9.7699C8.6343 10.0178 8.78704 10.2261 9.01534 10.3385C9.13774 10.3988 9.1642 10.4041 9.33946 10.4041C9.51472 10.4041 9.54118 10.3988 9.66358 10.3385C9.89188 10.2261 10.0446 10.0178 10.0805 9.7699C10.1064 9.59062 10.1046 5.41756 10.0785 5.25688C10.0273 4.94144 9.78806 4.69264 9.47958 4.63414C9.35912 4.6113 9.30484 4.61154 9.18336 4.63546ZM9.19902 11.8938C8.94432 11.9262 8.7276 12.0426 8.5364 12.2497C8.29498 12.5113 8.20498 12.8705 8.29026 13.2323C8.3527 13.4972 8.55248 13.7619 8.80088 13.9088C8.93214 13.9864 9.18318 14.0541 9.33946 14.0541C9.49574 14.0541 9.74678 13.9864 9.87804 13.9088C10.1264 13.7619 10.3262 13.4972 10.3887 13.2323C10.4739 12.8705 10.3839 12.5113 10.1425 12.2497C9.88938 11.9755 9.5535 11.8488 9.19902 11.8938Z" fill="#080B12" fill-rule="evenodd" transform="translate(0.661 0.666)" />
  </g>
</svg>